<svg xmlns="http://www.w3.org/2000/svg" viewBox="0 0 917.85 283.27">
  <defs>
    <style>
      .a {
        fill: #271d47;
      }
    </style>
  </defs>
  <title>odyssy__logo--type--standard</title>
  <g>
    <polygon class="a" points="530.03 50.49 490.02 50.49 440.18 166.91 390.53 50.49 350.53 50.49 420.14 213.73 390.53 282.89 430.54 282.89 459.95 214.2 460.35 214.2 460.15 213.73 530.03 50.49"/>
    <path class="a" d="M917.85,62.08h-40L828,178.59,778.28,62.08H753.11a81.68,81.68,0,0,0-81.67,81.67h0a41.69,41.69,0,0,1-41.65,41.65v.07H589.31a81.16,81.16,0,0,0,11.56-41.72h0a41.7,41.7,0,0,1,41.65-41.66v-40a81.67,81.67,0,0,0-81.66,81.67h0A41.7,41.7,0,0,1,519.2,185.4v.07H498.39l-16.1,39.94H629.77a81.66,81.66,0,0,0,81.66-81.66h0a41.71,41.71,0,0,1,41.66-41.66v0h2.21l52.6,123.33-29.57,69.08h40l29.4-68.68h.34l-.17-.4Z" transform="translate(0 -11.21)"/>
    <path class="a" d="M379.59,185.41H255.49a41.66,41.66,0,1,1,0-83.31h0a41.7,41.7,0,0,1,41.65,41.66h.32v.38h40V11.21h-40V73.79a81.63,81.63,0,1,0-42,151.62H396Z" transform="translate(0 -11.21)"/>
    <path class="a" d="M81.66,62.08h0A81.67,81.67,0,0,0,0,143.75H0a81.66,81.66,0,0,0,81.66,81.66v-.07h0v.07a81.67,81.67,0,0,0,81.67-81.66h0A81.67,81.67,0,0,0,81.66,62.08ZM82,185.39h-.5A41.69,41.69,0,0,1,40,143.75h0a41.66,41.66,0,1,1,42,41.64Z" transform="translate(0 -11.21)"/>
  </g>
</svg>
