<svg xmlns="http://www.w3.org/2000/svg" viewBox="0 0 1436.13 499.03">
  <defs>
    <style>
      .a {
        fill: #271d47;
      }

      .b {
        fill: #5e3f99;
      }

      .c {
        fill: #f6e75a;
      }

      .d {
        fill: #8c83be;
      }

      .e {
        fill: #c2b59b;
      }

      .f {
        fill: #ee2c5d;
      }
    </style>
  </defs>
  <title>odyssy__logo--standard</title>
  <path class="a" d="M219.55,243.76h0a56.65,56.65,0,0,0-56.66,56.65h0a56.65,56.65,0,0,0,56.66,56.65V357h0v.05a56.65,56.65,0,0,0,56.65-56.65h0A56.65,56.65,0,0,0,219.55,243.76Zm.2,85.54h-.34a28.92,28.92,0,0,1-28.76-28.89h0a28.9,28.9,0,1,1,29.1,28.89Z" transform="translate(-2.8 -50.48)"/>
  <rect class="b" x="277.4" y="135.65" width="21.06" height="1.52"/>
  <rect class="b" x="277.4" y="128.75" width="21.06" height="1.52"/>
  <rect class="c" x="277.4" y="101.96" width="21.06" height="1.52"/>
  <rect class="c" x="277.4" y="88.56" width="21.06" height="1.52"/>
  <rect class="c" x="277.4" y="81.87" width="21.06" height="1.52"/>
  <rect class="b" x="277.4" y="122.05" width="21.06" height="1.52"/>
  <rect class="d" x="244.83" y="128.75" width="21.06" height="1.52"/>
  <rect class="b" x="277.4" y="115.35" width="21.06" height="1.52"/>
  <rect class="b" x="277.4" y="108.66" width="21.06" height="1.52"/>
  <rect class="c" x="277.4" y="95.26" width="21.06" height="1.52"/>
  <rect class="c" x="310.36" y="128.75" width="21.06" height="1.52"/>
  <path class="e" d="M235.18,514.39V446.14a23.27,23.27,0,1,0-31.56-.27V515l1.52.87V447.17a23,23,0,0,0,6,3.43v68.72l1.52.88V451.14a23.33,23.33,0,0,0,6,1v71.51l.25.14,1.27-.74v-70.9a23.72,23.72,0,0,0,6-.94V519.6l1.51-.87v-68a23.38,23.38,0,0,0,6-3.31v67.86Z" transform="translate(-2.8 -50.48)"/>
  <path class="b" d="M386.49,245.39V193.57a22.41,22.41,0,0,1,7.19-16.45L388.24,174a28.42,28.42,0,0,0-7.82,19.59v51.82Z" transform="translate(-2.8 -50.48)"/>
  <path class="e" d="M378.19,211.41H357.91a11.87,11.87,0,1,0,0,1.52h20.28Zm-32.11,11.11a10.35,10.35,0,1,1,10.36-10.35A10.36,10.36,0,0,1,346.08,222.52Z" transform="translate(-2.8 -50.48)"/>
  <rect class="d" x="310.36" y="108.66" width="21.06" height="1.52"/>
  <rect class="d" x="310.36" y="122.05" width="21.06" height="1.52"/>
  <rect class="d" x="244.83" y="135.48" width="21.06" height="1.52"/>
  <rect class="d" x="310.36" y="135.65" width="21.06" height="1.52"/>
  <path class="b" d="M386.49,251.54h-6.07v8.8A22.49,22.49,0,0,1,358,282.8H334.21v6.07H358a28.57,28.57,0,0,0,28.54-28.53Z" transform="translate(-2.8 -50.48)"/>
  <rect class="c" x="310.36" y="115.35" width="21.06" height="1.52"/>
  <rect class="c" x="310.36" y="101.96" width="21.06" height="1.52"/>
  <rect class="b" x="244.83" y="95.26" width="21.06" height="1.52"/>
  <path class="c" d="M42.59,178v46.06a28.56,28.56,0,0,0,28.53,28.53h34.64v-6.07H71.12a22.48,22.48,0,0,1-22.46-22.46V174.48Z" transform="translate(-2.8 -50.48)"/>
  <g>
    <path class="b" d="M93.89,200.48a11.86,11.86,0,0,0-11.83,11.11H50.72v1.52H82l0-.05a11.86,11.86,0,1,0,11.83-12.58Zm0,22.22a10.35,10.35,0,1,1,10.35-10.35A10.36,10.36,0,0,1,93.89,222.7Z" transform="translate(-2.8 -50.48)"/>
    <rect class="b" x="22.27" y="161.1" width="15.44" height="1.52"/>
  </g>
  <rect class="d" x="22.27" y="268.69" width="79.81" height="6.07"/>
  <rect class="b" x="22.27" y="229.14" width="80.69" height="6.07"/>
  <path class="f" d="M93.89,345.6a11.86,11.86,0,0,0-11.83,11.11h-57v1.52h57A11.86,11.86,0,1,0,93.89,345.6Zm0,22.22a10.36,10.36,0,1,1,10.35-10.35A10.36,10.36,0,0,1,93.89,367.82Z" transform="translate(-2.8 -50.48)"/>
  <path class="b" d="M93.89,381.9A11.85,11.85,0,0,0,82,393.41h-57v1.52h57a11.87,11.87,0,1,0,11.81-13Zm0,22.22a10.36,10.36,0,1,1,10.35-10.36A10.37,10.37,0,0,1,93.89,404.12Z" transform="translate(-2.8 -50.48)"/>
  <path class="c" d="M412.7,247.71H357.91a11.87,11.87,0,1,0,0,1.52H412.7Zm-66.62,11.11a10.36,10.36,0,1,1,10.36-10.35A10.36,10.36,0,0,1,346.08,258.82Z" transform="translate(-2.8 -50.48)"/>
  <rect class="e" x="385.6" y="160.92" width="24.3" height="1.52"/>
  <path class="c" d="M159.12,439.05v-1.4a16.16,16.16,0,1,0-6.07,0v1.4a22.5,22.5,0,0,1-22.47,22.47H111l10.51,6.07h9.05A28.57,28.57,0,0,0,159.12,439.05Z" transform="translate(-2.8 -50.48)"/>
  <rect class="d" x="244.83" y="122.05" width="21.06" height="1.52"/>
  <path class="b" d="M288.14,483.81V437.65a16.16,16.16,0,1,0-6.07,0v49.67Z" transform="translate(-2.8 -50.48)"/>
  <g>
    <path class="c" d="M386.49,354v-6.28A28.57,28.57,0,0,0,358,319.17H334.21v6.07H358a22.5,22.5,0,0,1,22.47,22.47V354Z" transform="translate(-2.8 -50.48)"/>
    <path class="c" d="M386.49,406.56V360.14h-6.07v46.42a28.41,28.41,0,0,0,7.74,19.51l5.43-3.14A22.39,22.39,0,0,1,386.49,406.56Z" transform="translate(-2.8 -50.48)"/>
  </g>
  <g>
    <path class="f" d="M378.33,393H357.91a11.87,11.87,0,1,0,0,1.51h20.42Zm-32.25,11.11a10.36,10.36,0,1,1,10.36-10.36A10.37,10.37,0,0,1,346.08,404.12Z" transform="translate(-2.8 -50.48)"/>
    <rect class="f" x="385.73" y="342.52" width="24.17" height="1.52"/>
  </g>
  <path class="d" d="M412.7,356.3H357.89a11.89,11.89,0,1,0,.05,1.52H412.7Zm-66.62,11.52a10.36,10.36,0,1,1,10.36-10.35A10.37,10.37,0,0,1,346.08,367.82Z" transform="translate(-2.8 -50.48)"/>
  <path class="f" d="M190.28,132.35H161.19v1.52h29.09a56.52,56.52,0,0,1,21.83,5.27c14.42,7,21.74,19.3,21.74,36.7V187.7h1.51V175.84c0-22.47-12.28-33.1-22.59-38.07A57.06,57.06,0,0,0,190.28,132.35Z" transform="translate(-2.8 -50.48)"/>
  <path class="f" d="M220.24,187.7V178c0-11.06-4.78-19.73-13.82-25.06a38.43,38.43,0,0,0-17.19-5.15h-28v1.52h28c.3,0,29.5,1.23,29.5,28.69v9.7Z" transform="translate(-2.8 -50.48)"/>
  <rect class="b" x="244.83" y="88.56" width="21.06" height="1.52"/>
  <path class="f" d="M227.8,187.7V176.92c0-35.85-37.67-36.85-38.05-36.85H161.19v1.52h28.56c.37,0,36.54,1,36.54,35.33V187.7Z" transform="translate(-2.8 -50.48)"/>
  <rect class="d" x="244.83" y="115.35" width="21.06" height="1.52"/>
  <rect class="b" x="244.83" y="108.66" width="21.06" height="1.52"/>
  <rect class="b" x="244.83" y="101.96" width="21.06" height="1.52"/>
  <polygon class="f" points="148.18 106.54 148.18 105.03 78.72 105.03 76.09 106.54 148.18 106.54"/>
  <polygon class="f" points="148.18 98.82 148.18 97.31 92.09 97.31 89.46 98.82 148.18 98.82"/>
  <polygon class="f" points="148.18 114.26 148.18 112.75 65.35 112.75 62.72 114.26 148.18 114.26"/>
  <polygon class="f" points="148.18 91.1 148.18 89.59 105.46 89.59 102.83 91.1 148.18 91.1"/>
  <path class="f" d="M212.68,187.7v-8.61a21.85,21.85,0,0,0-9.41-18.55,27.5,27.5,0,0,0-14.56-5H161.19V157h27.52c7,0,22.46,5.55,22.46,22.06v8.61Z" transform="translate(-2.8 -50.48)"/>
  <polygon class="f" points="148.18 83.39 148.18 81.87 118.83 81.87 116.2 83.39 148.18 83.39"/>
  <path class="f" d="M205.12,187.7v-7.53a17,17,0,0,0-16.93-16.94h-27v1.52h27a15.43,15.43,0,0,1,15.42,15.42v7.53Z" transform="translate(-2.8 -50.48)"/>
  <polygon class="b" points="156.32 60.22 150.25 63.73 150.25 137.04 156.32 137.04 156.32 60.22"/>
  <g>
    <polygon class="a" points="1048.32 163.37 1008.31 163.37 958.47 279.79 908.82 163.37 868.81 163.37 938.42 326.61 908.82 395.77 948.83 395.77 978.23 327.08 978.63 327.08 978.43 326.61 1048.32 163.37"/>
    <path class="a" d="M1438.93,214.24h-40L1349,330.74l-49.68-116.5h-25.17a81.66,81.66,0,0,0-81.66,81.67h0a41.71,41.71,0,0,1-41.66,41.65v.07h-40.46A81.19,81.19,0,0,0,1122,295.91h0a41.7,41.7,0,0,1,41.65-41.66v-40A81.66,81.66,0,0,0,1082,295.91h0a41.71,41.71,0,0,1-41.66,41.65v.07h-20.81l-16.1,39.94h147.48a81.67,81.67,0,0,0,81.67-81.66h0a41.7,41.7,0,0,1,41.65-41.66v0h2.22L1329,377.56l-29.57,69.08h40l29.4-68.68h.34l-.17-.4Z" transform="translate(-2.8 -50.48)"/>
    <path class="a" d="M900.67,337.57H776.57a41.66,41.66,0,1,1,0-83.31h0a41.71,41.71,0,0,1,41.66,41.66h.31v.38h40V163.37h-40V226a81.63,81.63,0,1,0-42,151.62H917.13Z" transform="translate(-2.8 -50.48)"/>
    <path class="a" d="M602.75,214.24h0a81.66,81.66,0,0,0-81.67,81.66h0a81.66,81.66,0,0,0,81.67,81.66v-.07h0v.07a81.66,81.66,0,0,0,81.66-81.66h0A81.66,81.66,0,0,0,602.75,214.24Zm.3,123.3h-.5a41.69,41.69,0,0,1-41.46-41.64h0a41.66,41.66,0,1,1,42,41.63Z" transform="translate(-2.8 -50.48)"/>
  </g>
  <path class="a" d="M218.89,55.37,430.74,177.68V422.32L218.89,544.63,7,422.32V177.68L218.89,55.37m0-4.89L2.8,175.24V424.76L218.89,549.52,435,424.76V175.24L218.89,50.48Z" transform="translate(-2.8 -50.48)"/>
</svg>
